<?xml version="1.0" encoding="UTF-8" standalone="no"?><!DOCTYPE svg PUBLIC "-//W3C//DTD SVG 1.1//EN" "http://www.w3.org/Graphics/SVG/1.1/DTD/svg11.dtd"><svg width="100%" height="100%" viewBox="0 0 2962 1020" version="1.1" xmlns="http://www.w3.org/2000/svg" xmlns:xlink="http://www.w3.org/1999/xlink" xml:space="preserve" xmlns:serif="http://www.serif.com/" style="fill-rule:evenodd;clip-rule:evenodd;stroke-linejoin:round;stroke-miterlimit:2;"><g><g id="Logo-group" serif:id="Logo group"><path d="M633.572,225.744c11.745,0.205 -3.099,20.032 -3.099,20.032c0,0 -26.018,0.329 -40.271,0.329c-40.227,0 -81.082,3.017 -122.566,9.05c-115.652,16.591 -217.476,49.019 -305.472,97.283c-40.227,22.624 -72.911,48.264 -98.053,76.921c-22.628,24.886 -29.049,48.886 -15.79,68.827c15.126,22.749 43.717,10.728 46.87,15.913c7.283,11.981 -69.687,36.774 -85.762,21.592c-6.408,-6.052 -9.428,-22.624 -9.428,-33.936c0,-6.787 1.257,-13.951 3.771,-21.493c20.113,-64.855 85.482,-121.415 196.106,-169.68c128.223,-56.56 352.577,-86.254 433.695,-84.84Zm262.103,46.379c55.091,11.561 165.935,100.677 181.021,175.336l0,21.44c0,33.842 -11.294,68.249 -33.882,103.222c-22.588,34.973 -55.214,68.255 -97.876,99.846c-85.325,62.428 -188.219,111.694 -308.684,147.798c-109.17,34.596 -224.616,51.894 -346.337,51.894l-54.565,0c-60.242,0 -114.198,-10.994 -161.87,-32.981c-26.36,-14.411 -39.539,-33.747 -39.539,-58.009c0,-13.657 5.657,-26.931 16.971,-39.822c32.684,-32.604 77.939,-56.866 135.765,-72.786c55.312,-18.205 113.138,-31.856 173.478,-40.953c24.804,-4.729 49.291,-7.923 73.54,-9.969c101.824,-10.558 204.277,-15.837 307.358,-15.837c10.057,0 24.161,1.433 24.161,3.042c0,6.485 -75.143,8.548 -112.785,12.443c-59.149,6.121 -164.678,12.795 -245.132,21.844c-24.12,2.819 -93.024,14.706 -101.824,16.968c-55.312,11.312 -106.852,27.149 -154.622,47.51c-52.798,22.624 -79.196,47.51 -79.196,74.659l1.886,9.05c12.571,36.952 78.568,55.429 197.991,55.429c27.656,0 55.312,-1.131 82.968,-3.394c124.452,-12.82 238.218,-40.723 341.299,-83.709c101.824,-39.215 184.792,-89.365 248.903,-150.449c43.998,-42.231 65.997,-85.594 65.997,-130.088c0,-24.132 -6.285,-48.264 -18.856,-72.397c-25.227,-37.33 -62.184,-66.104 -111.119,-93.768c-12.341,-6.977 5.263,-38.353 14.952,-36.32Z"/><path d="M424.215,199.859c-0.224,-82.109 12.44,-88.394 7.223,-121.474c-5.217,-33.08 -23.653,-87.771 -38.525,-77.003c-14.873,10.768 -50.126,97.824 -50.71,141.611c-0.584,43.786 33.99,17.158 47.208,121.107c19.095,150.175 16.417,619.337 24.005,749.186c1.257,21.505 18.342,-22.52 18.533,-44.264c1.301,-147.933 -7.734,-769.162 -7.734,-769.162Z"/><path d="M646.15,237.232c1.781,4.997 -4.623,7.621 -14.516,8.484c-2.939,0.135 -16.426,-10.556 -16.702,-11.55c3.257,-1.086 -66.337,-153.399 -60.123,-159.087c8.566,-7.311 151.587,74.781 160.145,73.737c11.902,-1.301 89.97,-96.382 103.29,-95.396c12.677,3.88 36.505,115.291 45.777,126.073c13.593,8.99 140.962,-17.169 155.281,-4.48c7.008,8.662 -95.481,120.779 -89.039,119.168c-5.984,4.576 -36.71,4.504 -41.828,-1.183c-3.501,-3.889 -7.048,-9.055 -3.191,-14.603c5.303,-7.543 77.408,-68.058 75.379,-78.066c-6.367,-6.347 -106.431,8.412 -113.578,4.085c-10.6,-6.809 -30.007,-122.14 -35.802,-122.622c-5.782,-0.618 -65.424,86.314 -89.347,91.138c-24.171,3.452 -131.985,-66.74 -133.475,-61.41c-3.976,0.709 48.539,99.926 57.728,125.713Z"/><path d="M668.526,244.904c-11.733,-0.389 -6.976,-13.53 0.827,-14.403c18.445,-7.518 166.247,19.857 195.472,34.745c7.878,2.309 -10.839,28.137 -16.706,26.83c-58.697,-26.571 -139.29,-48.163 -179.593,-47.172Z"/></g><g><path d="M1372.16,583.283c13.755,-8.465 14.448,-14.631 -49.568,6.002c-36.505,11.639 -61.37,14.814 -53.435,-25.924c6.878,-35.447 41.795,-77.242 43.912,-80.945c1.587,-2.116 2.645,-4.761 2.645,-7.936c0.529,-2.645 0.529,-5.291 -0.529,-7.936c-0.529,-3.174 -1.587,-5.291 -3.703,-7.407c-1.587,-2.116 -3.174,-4.232 -5.82,-5.291c-1.587,-0.529 -3.174,-1.587 -4.761,-2.116c-3.703,-1.058 -7.936,-1.058 -11.639,0c-1.587,0.529 -3.174,1.587 -4.761,2.116c-3.174,1.587 -5.82,4.232 -7.407,7.407c-1.058,1.587 -2.116,2.645 -2.645,4.232c-3.703,4.761 -8.465,11.639 -14.814,19.575c-1.587,-12.697 -11.11,-35.976 -38.092,-47.086c-2.116,-1.058 -4.761,-1.587 -6.878,-2.116c-4.232,-0.529 -8.465,-1.058 -12.697,-1.058c-2.645,0 -5.82,0.529 -8.994,1.058c-1.058,0 -2.116,0.529 -3.703,0.529c-2.645,1.058 -4.761,1.587 -7.407,2.645c-4.232,1.587 -8.465,3.174 -12.697,5.291c-6.878,3.703 -12.697,8.465 -19.046,13.755c-5.291,3.703 -10.052,8.465 -14.284,13.226c-5.82,6.349 -11.11,12.697 -16.401,19.575c-4.232,5.82 -7.936,11.11 -11.639,16.93c-3.174,5.82 -5.82,11.639 -8.465,17.459c-3.174,6.878 -5.82,13.755 -7.407,21.162c-1.058,4.232 -1.587,8.994 -2.116,13.226c-0.529,2.116 -0.529,4.761 -0.529,6.878c0,1.058 0,2.116 0.529,3.174c0,3.174 0.529,5.82 1.058,8.994c0,0.529 0.529,1.587 1.058,2.645c0.529,2.645 1.587,5.291 3.174,7.936c0.529,0.529 1.058,1.587 1.587,2.116c1.058,2.116 2.645,3.703 4.232,5.82c0,0 1.587,1.587 2.116,2.116c2.116,1.587 3.703,2.645 5.291,4.232c2.645,1.587 5.291,2.645 7.936,3.174c1.058,0.529 2.116,1.058 3.174,1.058c2.116,0.529 4.761,0.529 6.878,1.058l5.291,0c3.174,-0.529 6.349,-1.058 8.994,-1.587c4.761,-1.058 8.465,-3.174 12.697,-4.761c3.174,-1.058 5.82,-2.645 8.994,-4.232c6.349,-3.703 12.697,-7.936 18.517,-12.697c7.936,-5.82 15.872,-12.168 23.807,-19.046c6.878,-5.82 13.226,-11.639 19.575,-17.988c3.703,-3.174 7.407,-6.878 11.11,-10.052c0,1.058 -0.529,2.116 -0.529,3.174c-1.058,4.232 -1.587,8.465 -2.116,13.226c-0.529,2.645 -0.529,5.291 0,7.407c0,4.232 0.529,8.465 2.116,12.697c1.058,3.703 2.645,7.407 4.232,10.581c1.587,3.174 3.703,5.82 5.82,7.936c1.058,1.058 2.116,2.116 3.174,3.174c2.645,2.116 5.291,4.232 7.936,5.82c2.645,1.587 5.82,3.174 8.994,4.232c3.174,1.587 6.349,2.116 10.052,2.645c5.82,0.529 11.11,1.587 16.93,1.058c6.349,0 12.168,-1.058 18.517,-2.116c10.052,-2.116 20.104,-5.291 29.627,-8.994c13.226,-5.82 19.941,-8.648 32.109,-16.054Zm-214.633,-0.346c-27.511,19.046 -41.795,5.291 -22.22,-35.976c0.529,-1.058 0.529,-1.587 1.058,-2.116c4.761,-8.994 26.453,-47.615 53.435,-65.074c36.505,-23.807 52.905,-11.639 66.132,10.052c-19.575,25.395 -50.789,60.312 -98.404,93.114Z"/><path d="M1521.091,564.107c-6.025,-7.188 -21.182,9.889 -85.197,30.522c-36.505,11.639 -61.37,14.814 -53.435,-25.924c6.878,-35.447 59.745,-98.183 61.861,-101.886c1.587,-2.116 2.116,-4.761 2.645,-7.936c0.529,-2.645 0,-5.291 -0.529,-7.936c-0.529,-3.174 -2.116,-5.291 -3.703,-7.407c-1.587,-2.116 -3.703,-4.232 -5.82,-5.291c-2.116,-0.529 -3.703,-1.587 -5.291,-2.116c-3.703,-1.058 -7.407,-1.058 -11.11,0c-1.587,0.529 -3.174,1.587 -4.761,2.116c-3.174,1.587 -5.82,4.232 -7.936,7.407c-5.291,8.994 -29.588,38.4 -34.879,47.393c-3.174,4.761 -6.878,10.052 -9.523,15.872c-3.703,6.878 -7.407,13.755 -10.581,21.162c-2.116,5.82 -4.232,11.11 -5.291,16.93c-1.058,4.232 -1.587,8.465 -2.116,13.226l0,7.407c0.529,4.232 1.058,8.465 2.116,12.697c1.058,3.703 2.645,7.407 4.761,10.581c1.587,3.174 3.703,5.82 5.82,7.936c1.058,1.058 2.116,2.116 3.174,3.174c2.116,2.116 4.761,4.232 7.407,5.82c3.174,1.587 6.349,3.174 9.523,4.232c3.174,1.587 6.349,2.116 9.523,2.645c5.82,0.529 11.639,1.587 16.93,1.058c6.349,0 12.697,-1.058 18.517,-2.116c10.581,-2.116 20.633,-5.291 30.156,-8.994c13.226,-5.82 25.924,-11.639 38.092,-19.046c13.755,-8.465 35.913,-14.052 29.646,-21.528Z"/><path d="M1762.374,573.749c-21.958,4.002 -78.895,69.62 -100.041,-42.66c-3.703,-30.156 -0.529,-38.621 1.587,-57.667c0.529,-4.761 1.587,-10.581 1.058,-15.872c-0.529,-4.761 -1.058,-8.994 -3.703,-13.755c-2.645,-4.232 -5.82,-7.407 -9.523,-9.523c-4.232,-2.116 -17.459,-4.761 -35.447,17.988c-7.407,9.523 -51.318,64.545 -97.346,125.915c7.936,-26.982 31.743,-70.364 56.609,-111.101c12.697,-21.162 -2.645,-31.214 -8.994,-32.801c-8.465,-1.587 -21.691,0 -30.685,13.755c-33.33,50.26 -52.376,89.41 -62.958,129.618c-12.168,44.441 49.731,39.679 52.376,30.685c6.349,-9.523 60.841,-93.643 95.23,-123.799c-0.529,6.349 -1.058,12.697 -1.058,19.046c-0.529,12.697 0,25.924 2.645,38.092c1.058,5.82 2.116,11.11 4.232,16.401c2.645,6.349 5.291,13.226 9.523,19.046c4.232,5.82 8.994,11.639 14.284,15.872c3.703,3.174 7.407,5.82 11.639,7.936c4.232,2.645 8.465,4.232 13.226,6.349c9.523,3.703 20.633,5.291 31.214,5.291c23.278,0 43.036,-9.03 62.611,-21.199c2.318,-8.465 1.29,-7.198 1.29,-12.489c0,-8.465 -1.974,-6.184 -7.772,-5.127Z"/><path d="M2026.333,580.291c13.755,-8.465 8.465,-11.639 -55.551,8.994c-36.505,11.639 -61.37,14.814 -53.435,-25.924c6.878,-35.447 41.795,-77.242 43.912,-80.945c1.587,-2.116 2.645,-4.761 2.645,-7.936c0.529,-2.645 0.529,-5.291 -0.529,-7.936c-0.529,-3.174 -1.587,-5.291 -3.703,-7.407c-1.587,-2.116 -3.174,-4.232 -5.82,-5.291c-1.587,-0.529 -3.174,-1.587 -4.761,-2.116c-3.703,-1.058 -7.936,-1.058 -11.639,0c-1.587,0.529 -3.174,1.587 -4.761,2.116c-3.174,1.587 -5.82,4.232 -7.407,7.407c-1.058,1.587 -2.116,2.645 -2.645,4.232c-3.703,4.761 -8.465,11.639 -14.814,19.575c-1.587,-12.697 -11.11,-35.976 -38.092,-47.086c-2.116,-1.058 -4.761,-1.587 -6.878,-2.116c-4.232,-0.529 -8.465,-1.058 -12.697,-1.058c-2.645,0 -5.82,0.529 -8.994,1.058c-1.058,0 -2.116,0.529 -3.703,0.529c-2.645,1.058 -4.761,1.587 -7.407,2.645c-4.232,1.587 -8.465,3.174 -12.697,5.291c-6.878,3.703 -12.697,8.465 -19.046,13.755c-5.291,3.703 -10.052,8.465 -14.284,13.226c-5.82,6.349 -11.11,12.697 -16.401,19.575c-4.232,5.82 -7.936,11.11 -11.639,16.93c-3.174,5.82 -5.82,11.639 -8.465,17.459c-3.174,6.878 -5.82,13.755 -7.407,21.162c-1.058,4.232 -1.587,8.994 -2.116,13.226c-0.529,2.116 -0.529,4.761 -0.529,6.878c0,1.058 0,2.116 0.529,3.174c0,3.174 0.529,5.82 1.058,8.994c0,0.529 0.529,1.587 1.058,2.645c0.529,2.645 1.587,5.291 3.174,7.936c0.529,0.529 1.058,1.587 1.587,2.116c1.058,2.116 2.645,3.703 4.232,5.82c0,0 1.587,1.587 2.116,2.116c2.116,1.587 3.703,2.645 5.291,4.232c2.645,1.587 5.291,2.645 7.936,3.174c1.058,0.529 2.116,1.058 3.174,1.058c2.116,0.529 4.761,0.529 6.878,1.058l5.291,0c3.174,-0.529 6.349,-1.058 8.994,-1.587c4.761,-1.058 8.465,-3.174 12.697,-4.761c3.174,-1.058 5.82,-2.645 8.994,-4.232c6.349,-3.703 12.697,-7.936 18.517,-12.697c7.936,-5.82 15.872,-12.168 23.807,-19.046c6.878,-5.82 13.226,-11.639 19.575,-17.988c3.703,-3.174 7.407,-6.878 11.11,-10.052c0,1.058 -0.529,2.116 -0.529,3.174c-1.058,4.232 -1.587,8.465 -2.116,13.226c-0.529,2.645 -0.529,5.291 0,7.407c0,4.232 0.529,8.465 2.116,12.697c1.058,3.703 2.645,7.407 4.232,10.581c1.587,3.174 3.703,5.82 5.82,7.936c1.058,1.058 2.116,2.116 3.174,3.174c2.645,2.116 5.291,4.232 7.936,5.82c2.645,1.587 5.82,3.174 8.994,4.232c3.174,1.587 6.349,2.116 10.052,2.645c5.82,0.529 11.11,1.587 16.93,1.058c6.349,0 12.168,-1.058 18.517,-2.116c10.052,-2.116 20.104,-5.291 29.627,-8.994c13.226,-5.82 25.924,-11.639 38.092,-19.046Zm-220.616,2.645c-27.511,19.046 -41.795,5.291 -22.22,-35.976c0.529,-1.058 0.529,-1.587 1.058,-2.116c4.761,-8.994 26.453,-47.615 53.435,-65.074c36.505,-23.807 52.905,-11.639 66.132,10.052c-19.575,25.395 -50.789,60.312 -98.404,93.114Z"/><path d="M2335.914,612.929c75.158,-4.889 89.408,-53.939 63.487,-39.15c-51.318,30.685 -103.166,26.453 -81.474,-67.19c11.639,-51.847 -14.979,-66.686 -34.389,-55.551c-9.639,5.53 -19.974,20.842 -28.223,32.619c-14.814,21.149 -56.426,96.393 -60.658,94.277c-7.407,-4.232 27.064,-128.3 22.567,-156.504c-2.696,-16.907 -36.036,-23.231 -49.548,-12.717c-29.01,22.573 -101.579,124.328 -127.502,157.129c0.529,-1.587 1.058,-3.174 1.587,-4.761c1.058,-1.587 1.587,-3.703 2.645,-5.291c2.645,-6.349 5.291,-12.168 7.936,-18.517c3.703,-7.407 7.407,-14.284 11.11,-21.691c3.703,-6.878 7.407,-13.755 11.639,-20.633c3.174,-6.349 6.878,-12.697 10.581,-18.517c3.174,-4.761 6.349,-8.994 9.523,-13.755c0.529,-0.529 1.058,-1.587 1.587,-2.116c2.116,-2.116 3.703,-4.232 4.761,-6.878c1.058,-2.645 1.587,-5.291 1.587,-7.936c0,-3.174 -0.529,-5.82 -1.587,-7.936c-1.058,-2.645 -2.645,-5.291 -4.761,-6.878c-1.058,-1.058 -2.645,-2.116 -4.232,-3.174c-3.174,-2.116 -6.349,-3.174 -10.581,-3.174c-1.587,0.529 -3.703,0.529 -5.291,1.058c-3.703,1.058 -6.878,2.645 -9.523,5.291c-1.058,1.058 -2.116,2.645 -3.174,3.703c-2.116,3.174 -4.232,5.82 -6.878,8.994c-2.645,4.232 -5.291,8.465 -7.936,12.168c-3.174,5.291 -6.349,10.581 -8.994,15.343c-3.703,5.82 -6.349,11.639 -9.523,16.93c-3.174,6.349 -6.349,12.168 -9.523,17.988c-2.645,5.82 -5.82,12.168 -8.465,17.988c-3.174,6.878 -6.349,14.284 -9.523,21.162c-1.587,5.291 -3.703,10.052 -5.291,14.814c-1.058,3.703 -2.116,7.407 -3.174,11.639c-0.529,2.645 -0.529,5.291 -1.058,7.407l0,4.232c0,2.116 0.529,4.232 1.058,5.82l0,1.058c0.529,2.116 1.587,4.232 2.645,5.82l0,0.529c0.529,0.529 3.174,3.703 3.703,4.232l0,0.529c0.529,0 1.587,1.058 2.116,1.587c1.058,0.529 2.116,1.587 2.645,1.587l0,0.529c0.529,0 4.761,2.116 5.291,2.116l0.529,0c1.058,0 5.291,0.529 5.82,1.058l1.058,0c1.587,-0.529 4.232,-0.529 5.82,-1.058l0.529,0c1.587,-0.529 3.703,-1.587 5.291,-2.116l0,-0.529c0.529,0 1.587,-0.529 2.116,-1.058c3.174,-2.645 6.349,-5.291 9.523,-7.936c2.116,-2.645 4.232,-5.291 6.878,-7.936c2.645,-3.174 5.291,-6.878 7.936,-10.052c4.232,-5.291 8.465,-10.581 12.697,-16.401c3.703,-4.232 6.878,-8.994 10.581,-13.226c3.703,-4.761 7.407,-10.052 11.11,-14.814c3.703,-5.291 7.407,-10.052 11.11,-15.343c4.232,-5.291 7.936,-10.052 12.168,-15.343c1.058,-1.587 2.645,-3.703 3.703,-5.291c3.703,-4.761 7.936,-10.052 11.639,-14.814c4.232,-5.291 8.465,-10.581 12.697,-15.343c3.703,-4.761 7.936,-9.523 11.639,-13.755c3.703,-4.232 7.407,-7.936 11.11,-11.639c-7.407,24.337 -17.459,109.437 -6.878,144.884c5.291,16.401 29.627,25.924 46.028,9.523c12.168,-12.168 64.016,-109.966 64.016,-103.617c0,5.82 -19.575,128.031 67.719,120.624Z"/><path d="M2669.685,561.755c-4.218,4.639 -20.457,29.151 -58.802,21.547c-36.505,11.639 -61.37,14.814 -53.435,-25.924c6.878,-35.447 41.795,-77.242 43.912,-80.945c1.587,-2.116 2.645,-4.761 2.645,-7.936c0.529,-2.645 0.529,-5.291 -0.529,-7.936c-0.529,-3.174 -1.587,-5.291 -3.703,-7.407c-1.587,-2.116 -3.174,-4.232 -5.82,-5.291c-1.587,-0.529 -3.174,-1.587 -4.761,-2.116c-3.703,-1.058 -7.936,-1.058 -11.639,0c-1.587,0.529 -3.174,1.587 -4.761,2.116c-3.174,1.587 -5.82,4.232 -7.407,7.407c-1.058,1.587 -2.116,2.645 -2.645,4.232c-3.703,4.761 -8.465,11.639 -14.814,19.575c-1.587,-12.697 -11.11,-35.976 -38.092,-47.086c-2.116,-1.058 -4.761,-1.587 -6.878,-2.116c-4.232,-0.529 -8.465,-1.058 -12.697,-1.058c-2.645,0 -5.82,0.529 -8.994,1.058c-1.058,0 -2.116,0.529 -3.703,0.529c-2.645,1.058 -4.761,1.587 -7.407,2.645c-4.232,1.587 -8.465,3.174 -12.697,5.291c-6.878,3.703 -12.697,8.465 -19.046,13.755c-5.291,3.703 -10.052,8.465 -14.284,13.226c-5.82,6.349 -11.11,12.697 -16.401,19.575c-4.232,5.82 -7.936,11.11 -11.639,16.93c-3.174,5.82 -5.82,11.639 -8.465,17.459c-3.174,6.878 -5.82,13.755 -7.407,21.162c-1.058,4.232 -1.587,8.994 -2.116,13.226c-0.529,2.116 -0.529,4.761 -0.529,6.878c0,1.058 0,2.116 0.529,3.174c0,3.174 0.529,5.82 1.058,8.994c0,0.529 0.529,1.587 1.058,2.645c0.529,2.645 1.587,5.291 3.174,7.936c0.529,0.529 1.058,1.587 1.587,2.116c1.058,2.116 2.645,3.703 4.232,5.82c0,0 1.587,1.587 2.116,2.116c2.116,1.587 3.703,2.645 5.291,4.232c2.645,1.587 5.291,2.645 7.936,3.174c1.058,0.529 2.116,1.058 3.174,1.058c2.116,0.529 4.761,0.529 6.878,1.058l5.291,0c3.174,-0.529 6.349,-1.058 8.994,-1.587c4.761,-1.058 8.465,-3.174 12.697,-4.761c3.174,-1.058 5.82,-2.645 8.994,-4.232c6.349,-3.703 12.697,-7.936 18.517,-12.697c7.936,-5.82 15.872,-12.168 23.807,-19.046c6.878,-5.82 13.226,-11.639 19.575,-17.988c3.703,-3.174 7.407,-6.878 11.11,-10.052c0,1.058 -0.529,2.116 -0.529,3.174c-1.058,4.232 -1.587,8.465 -2.116,13.226c-0.529,2.645 -0.529,5.291 0,7.407c0,4.232 0.529,8.465 2.116,12.697c1.058,3.703 2.645,7.407 4.232,10.581c1.587,3.174 3.703,5.82 5.82,7.936c1.058,1.058 2.116,2.116 3.174,3.174c2.645,2.116 5.291,4.232 7.936,5.82c2.645,1.587 5.82,3.174 8.994,4.232c3.174,1.587 6.349,2.116 10.052,2.645c5.82,0.529 11.11,1.587 16.93,1.058c6.349,0 12.168,-1.058 18.517,-2.116c10.052,-2.116 20.104,-5.291 29.627,-8.994c13.226,-5.82 25.924,-11.639 38.092,-19.046c13.755,-8.465 3.252,-12.553 3.252,-12.553Zm-223.867,15.198c-27.511,19.046 -41.795,5.291 -22.22,-35.976c0.529,-1.058 0.529,-1.587 1.058,-2.116c4.761,-8.994 26.453,-47.615 53.435,-65.074c36.505,-23.807 52.905,-11.639 66.132,10.052c-19.575,25.395 -50.789,60.312 -98.404,93.114Z"/><path d="M2622.144,594.191c-39.446,18.249 -36.716,1.114 -11.861,-10.867c7.852,-3.334 41.389,-20.769 67.452,-38.468c2.35,-1.853 5.225,-3.645 8.162,-5.961l-1.204,-3.339c-2.47,-6.152 -4.29,-13.292 -6.173,-19.907c-2.652,-13.631 -3.202,-27.015 -3.165,-40.861c0,0 -0.071,-49.02 1.754,-50.935c2.474,-2.904 4.886,-5.283 8.286,-7.012c1.638,-0.339 3.802,-0.616 5.502,-1.481c2.689,-0.215 5.904,-0.368 8.994,0.529l2.627,0.31c3.152,0.372 5.717,1.208 7.695,2.507c2.503,1.361 4.944,3.248 6.334,5.01c1.853,2.35 3.181,4.638 3.397,7.327c1.266,2.813 1.481,5.502 1.109,8.655c-2.726,14.062 -4.402,28.248 -4.038,43.207c0.12,8.005 0.794,20.338 2.118,31.681c55.56,-41.917 115.791,-91.805 119.316,-94.585c5.163,-3.119 9.863,-6.826 14.624,-11.058c4.638,-3.181 10.14,-4.662 15.919,-3.98c19.817,0.535 43.388,58.276 16.358,44.648c-16.904,-5.726 -93.079,41.117 -160.355,87.51c26.953,64.98 78.757,59.378 110.504,47.679c73.635,-28.062 109.602,-75.489 112.539,-77.806c5.75,-3.583 11.096,0.778 12.424,3.065c1.328,2.288 3.86,7.914 -7.612,19.345c-2.999,2.842 -5.999,5.684 -9.523,8.464c-11.873,10.318 -24.21,20.048 -37.535,29.129c-13.387,9.606 -27.701,18.038 -42.88,24.769c-6.214,2.995 -12.366,5.465 -19.043,7.873c-8.253,2.222 -15.981,4.505 -24.173,6.202c-6.553,1.357 -13.044,2.189 -19.473,2.495c-8.067,0.645 -16.01,0.24 -24.479,-0.227c-6.83,-0.807 -13.536,-2.664 -20.243,-4.522c-4.667,-1.084 -9.271,-2.693 -13.814,-4.828c-6.057,-2.846 -11.588,-5.63 -16.995,-9.465c-3.955,-2.598 -7.323,-5.659 -10.69,-8.721c-4.82,-4.298 -9.052,-9.06 -13.222,-14.347c-1.791,-2.875 -4.108,-5.813 -5.899,-8.688c-21.951,14.455 -57.035,29.986 -72.739,36.655Z"/></g><path d="M1445.463,381.401c10.369,-5.019 22.959,-0.475 28.097,10.14c5.138,10.615 0.891,23.308 -9.479,28.327c-10.369,5.019 -22.959,0.475 -28.097,-10.14c-5.138,-10.615 -0.891,-23.308 9.479,-28.327Z"/></g></svg>